<svg width="40" height="41" viewBox="0 0 40 41" fill="none" xmlns="http://www.w3.org/2000/svg">
<path d="M32.5 37.5262C33.8261 37.5262 35.0979 36.9994 36.0355 36.0617C36.9732 35.124 37.5 33.8522 37.5 32.5262V18.9028L26.035 25.6062L31.8433 28.7328C32.1353 28.8902 32.3528 29.1571 32.448 29.4748C32.5431 29.7925 32.5082 30.135 32.3508 30.427C32.1935 30.719 31.9266 30.9364 31.6089 31.0316C31.2911 31.1268 30.9486 31.0919 30.6567 30.9345L21.185 25.8345C20.8208 25.6384 20.4136 25.5358 20 25.5358C19.5864 25.5358 19.1792 25.6384 18.815 25.8345L9.34333 30.9345C9.05219 31.0852 8.71351 31.1155 8.40025 31.0188C8.087 30.9222 7.82425 30.7063 7.66862 30.4178C7.51299 30.1293 7.47694 29.7911 7.56823 29.4763C7.65951 29.1614 7.87084 28.895 8.15667 28.7345L13.965 25.6062L2.5 18.9028V32.5262C2.5 33.8522 3.02678 35.124 3.96447 36.0617C4.90215 36.9994 6.17392 37.5262 7.5 37.5262H32.5Z" fill="#FF8DDC"/>
<path d="M2.5 16.008V14.7664C2.50017 13.8636 2.74476 12.9777 3.20781 12.2027C3.67086 11.4278 4.33509 10.7926 5.13 10.3647L17.63 3.63302C18.3584 3.2409 19.1727 3.03564 20 3.03564C20.8273 3.03564 21.6416 3.2409 22.37 3.63302L34.87 10.3647C35.6649 10.7926 36.3291 11.4278 36.7922 12.2027C37.2552 12.9777 37.4998 13.8636 37.5 14.7664V16.008L23.4567 24.218L22.37 23.6347C21.6416 23.2426 20.8273 23.0373 20 23.0373C19.1727 23.0373 18.3584 23.2426 17.63 23.6347L16.5433 24.218L2.5 16.0097V16.008Z" fill="#FF8DDC"/>
</svg>
