<svg width="40" height="41" viewBox="0 0 40 41" fill="none" xmlns="http://www.w3.org/2000/svg">
<path fill-rule="evenodd" clip-rule="evenodd" d="M2.5 7.52637C2.5 6.20028 3.02678 4.92852 3.96447 3.99083C4.90215 3.05315 6.17392 2.52637 7.5 2.52637H9.78667C11.22 2.52637 12.47 3.50303 12.8183 4.89303L14.66 12.2647C14.8092 12.8614 14.7791 13.4888 14.5733 14.0684C14.3676 14.648 13.9954 15.154 13.5033 15.523L11.3483 17.1397C11.1233 17.308 11.075 17.5547 11.1383 17.7264C12.079 20.2845 13.5643 22.6075 15.4916 24.5348C17.4188 26.462 19.7419 27.9474 22.3 28.888C22.4717 28.9514 22.7167 28.903 22.8867 28.678L24.5033 26.523C24.8723 26.031 25.3784 25.6588 25.958 25.453C26.5376 25.2473 27.165 25.2171 27.7617 25.3664L35.1333 27.208C36.5233 27.5564 37.5 28.8064 37.5 30.2414V32.5264C37.5 33.8524 36.9732 35.1242 36.0355 36.0619C35.0979 36.9996 33.8261 37.5264 32.5 37.5264H28.75C14.2533 37.5264 2.5 25.773 2.5 11.2764V7.52637Z" fill="#FF8DDC"/>
</svg>
