<svg width="40" height="41" viewBox="0 0 40 41" fill="none" xmlns="http://www.w3.org/2000/svg">
<g clip-path="url(#clip0_73_7594)">
<path d="M19.9994 0.0263672C12.3455 0.0263672 6.11871 6.25406 6.11871 13.9081C6.11871 21.2759 18.7129 38.4895 19.2491 39.2184L19.7496 39.8995C19.8081 39.9796 19.9013 40.0264 19.9994 40.0264C20.099 40.0264 20.1915 39.9796 20.2507 39.8995L20.7508 39.2184C21.2874 38.4895 33.8813 21.2759 33.8813 13.9081C33.8813 6.25406 27.6535 0.0263672 19.9994 0.0263672ZM19.9994 8.93572C22.7418 8.93572 24.9718 11.1658 24.9718 13.9081C24.9718 16.649 22.7417 18.8806 19.9994 18.8806C17.2586 18.8806 15.027 16.649 15.027 13.9081C15.027 11.1658 17.2585 8.93572 19.9994 8.93572Z" fill="#FF88DC"/>
</g>
<defs>
<clipPath id="clip0_73_7594">
<rect width="40" height="40" fill="white" transform="translate(0 0.0263672)"/>
</clipPath>
</defs>
</svg>
