<?xml version="1.0" encoding="utf-8"?>
<!-- Generator: Adobe Illustrator 26.1.0, SVG Export Plug-In . SVG Version: 6.00 Build 0)  -->
<svg version="1.1" id="Ebene_1" xmlns="http://www.w3.org/2000/svg" xmlns:xlink="http://www.w3.org/1999/xlink" x="0px" y="0px"
	 viewBox="0 0 1011 446" style="enable-background:new 0 0 1011 446;" xml:space="preserve">
<style type="text/css">
	.st0{fill:#F0F0F0;}
	.st1{fill:#FFFFFF;}
	.st2{fill:#A0616A;}
	.st3{fill:#2F2E41;}
	.st4{fill:url(#SVGID_1_);}
	.st5{fill:url(#SVGID_00000097467234122848931300000001599317014550757277_);}
	.st6{fill:url(#SVGID_00000062171624103898079820000000819492041271869594_);}
	.st7{fill:url(#SVGID_00000130619063601188164090000014784632661406342582_);}
	.st8{fill:#E5E5E5;}
	.st9{fill:#E6E6E6;}
	.st10{fill:url(#SVGID_00000153686890881777701940000011238999340887132584_);}
	.st11{fill:url(#SVGID_00000008849025864732393890000001992458784361767580_);}
	.st12{fill:#CACACA;}
	.st13{fill:#3F3D56;}
	.st14{fill:#00AEEF;}
	.st15{fill:#E4E4E4;}
	.st16{fill:#FF88DC;}
	.st17{fill:url(#SVGID_00000103953355307955579340000007481622228027944338_);}
	.st18{fill:url(#SVGID_00000048468512031017099080000016127166766948959881_);}
	.st19{fill:#FFB8B8;}
	.st20{fill:#FFB7B7;}
</style>
<path class="st0" d="M318.2,16.9c14.5-6.1,32.6-5.5,44.5,4.9c-16.8,3-32.1,11.8-43.1,24.9c-4.2,5.1-8.4,11.2-14.8,12.4
	c-4,0.8-8.2-0.6-11.7-2.8c-3.4-2.2-6.2-5.3-9-8.3l-1-0.4C292.4,34.9,303.7,23,318.2,16.9z"/>
<path class="st1" d="M362.5,22.1c-12.7-2.6-26-1.2-37.9,4.1c-2.6,1.1-5,2.6-7.1,4.4c-2,1.9-3.5,4.2-4.2,6.8c-0.8,2.4-1.3,5-2.6,7.2
	c-1.4,2.3-3.8,3.8-6.4,4.2c-3.2,0.6-6.5,0-9.7-0.6c-3.5-0.8-7.2-1.6-10.7-0.7c-0.4,0.1-0.6-0.6-0.1-0.7c6.2-1.5,12.2,1.9,18.5,1.6
	c2.9-0.1,5.8-1.2,7.5-3.6c1.5-2.1,2-4.8,2.8-7.3c0.7-2.6,2.1-4.9,3.9-6.8c2-1.9,4.3-3.5,6.9-4.7c5.7-2.7,11.8-4.5,18-5.3
	c7.1-1,14.4-0.7,21.4,0.7C363.1,21.5,362.9,22.2,362.5,22.1L362.5,22.1z"/>
<path class="st1" d="M328.3,24.3c-1.3-4.4,0.8-9,4.9-11c0.4-0.2,0.7,0.4,0.3,0.6c-3.8,1.8-5.7,6.2-4.5,10.2
	C329.1,24.5,328.5,24.7,328.3,24.3z"/>
<path class="st1" d="M313.5,36.2c3.9,2.2,8.6,2.8,12.9,1.8c0.4-0.1,0.6,0.6,0.1,0.7c-4.6,1.1-9.4,0.4-13.5-1.9
	C312.8,36.6,313.1,36,313.5,36.2z"/>
<path class="st1" d="M348.2,20.6c0.1,1.8,1.2,3.3,2.7,4.2c0.4,0.2,0,0.8-0.4,0.6c-1.7-0.9-2.8-2.7-3-4.6c0-0.2,0.1-0.4,0.3-0.4
	C348,20.3,348.1,20.4,348.2,20.6L348.2,20.6z"/>
<path class="st0" d="M361.2,75c-0.2-0.1-0.5-0.3-0.8-0.4c-3.4-1.7-6.8-3.1-10.4-4.2c-0.3-0.1-0.6-0.2-0.8-0.3
	c-8.7-2.6-17.7-3.6-26.7-2.9c-3.6,0.3-7.1,0.8-10.6,1.7c-4.8,1.1-10,2.8-14.8,2.3c-0.5,0-1-0.1-1.5-0.2l-12.8-22.2
	c0-0.1,0-0.1,0-0.2l-0.6-0.9c0.2-0.1,0.4-0.1,0.5-0.2c0.1,0,0.2-0.1,0.3-0.1c0.1,0,0.1,0,0.2-0.1c0,0,0,0,0.1,0c0.1,0,0.1,0,0.2-0.1
	c1-0.3,2.1-0.6,3.1-0.9c0,0,0,0,0,0c7.9-2.3,16.1-3.6,24.3-3.9c0.2,0,0.5,0,0.7,0c3.7-0.1,7.4,0.1,11,0.6c2,0.3,4,0.7,5.9,1.2
	c5.1,1.3,9.9,3.3,14.3,6.1c8.8,5.5,15.7,13.8,18.1,23.8C361.1,74.5,361.2,74.8,361.2,75z"/>
<path class="st1" d="M360.9,75.1c-8.6-9.8-20-16.6-32.7-19.5c-2.7-0.7-5.5-0.9-8.3-0.7c-2.7,0.3-5.3,1.3-7.5,2.9
	c-2.1,1.5-4,3.2-6.4,4.2c-2.5,0.9-5.3,0.8-7.6-0.5c-3-1.5-5.2-3.9-7.3-6.3c-2.4-2.7-4.8-5.6-8.1-7c-0.4-0.2-0.1-0.8,0.3-0.6
	c5.9,2.5,8.6,8.9,13.8,12.4c2.4,1.6,5.3,2.6,8.2,1.6c2.5-0.8,4.5-2.6,6.6-4.1c2.1-1.6,4.6-2.7,7.2-3.1c2.8-0.3,5.6-0.2,8.3,0.4
	c6.2,1.3,12.1,3.5,17.6,6.6c6.3,3.5,11.9,8.1,16.6,13.5C361.8,75.1,361.2,75.5,360.9,75.1z"/>
<path class="st1" d="M332.4,56.3c1.6-4.3,6.1-6.7,10.5-5.8c0.4,0.1,0.3,0.8-0.1,0.7c-4.2-0.8-8.3,1.5-9.8,5.4
	C332.8,57,332.2,56.7,332.4,56.3L332.4,56.3z"/>
<path class="st1" d="M313.3,56.9c1.8,4.1,5.1,7.4,9.3,9.2c0.4,0.2,0.1,0.8-0.3,0.6c-4.3-1.9-7.7-5.3-9.6-9.6
	C312.5,56.8,313.2,56.5,313.3,56.9L313.3,56.9z"/>
<path class="st1" d="M350.4,65.3c-0.9,1.5-1.1,3.4-0.4,5c0.2,0.4-0.5,0.6-0.7,0.2c-0.8-1.8-0.7-3.8,0.4-5.5c0.1-0.2,0.3-0.2,0.5-0.2
	C350.4,65,350.5,65.2,350.4,65.3L350.4,65.3z"/>
<polygon class="st2" points="865.5,422.1 854.1,422.1 848.7,378.3 865.5,378.3 "/>
<path class="st3" d="M868.3,433.1l-36.6,0v-0.5c0-7.9,6.4-14.3,14.3-14.3h0l22.4,0L868.3,433.1z"/>
<polygon class="st2" points="953.9,417.2 942.7,418.9 930.8,376.4 945.5,373.8 "/>
<path class="st3" d="M958.4,427.6l-36.2,5.5l-0.1-0.5c-1.2-7.8,4.2-15.1,12-16.2l0,0l22.1-3.3L958.4,427.6z"/>
<path class="st1" d="M629.8,433.1H290.3V93.6h339.5V433.1z"/>
<path class="st0" d="M629.8,433.1H290.3V93.6h339.5V433.1z M295.4,428.1h329.5V98.6H295.4L295.4,428.1z"/>
<linearGradient id="SVGID_1_" gradientUnits="userSpaceOnUse" x1="360.347" y1="243.4043" x2="578.0734" y2="243.4043">
	<stop  offset="0" style="stop-color:#FF88DC"/>
	<stop  offset="1" style="stop-color:#00AEEF"/>
</linearGradient>
<rect x="360.3" y="239.6" class="st4" width="217.7" height="7.7"/>
<linearGradient id="SVGID_00000049199839743207656710000008696236345644556418_" gradientUnits="userSpaceOnUse" x1="360.347" y1="263.3875" x2="578.0734" y2="263.3875">
	<stop  offset="0" style="stop-color:#FF88DC"/>
	<stop  offset="1" style="stop-color:#00AEEF"/>
</linearGradient>
<rect x="360.3" y="259.5" style="fill:url(#SVGID_00000049199839743207656710000008696236345644556418_);" width="217.7" height="7.7"/>
<linearGradient id="SVGID_00000104695993421361746660000010209630884358893475_" gradientUnits="userSpaceOnUse" x1="360.347" y1="283.3708" x2="578.0734" y2="283.3708">
	<stop  offset="0" style="stop-color:#FF88DC"/>
	<stop  offset="1" style="stop-color:#00AEEF"/>
</linearGradient>
<rect x="360.3" y="279.5" style="fill:url(#SVGID_00000104695993421361746660000010209630884358893475_);" width="217.7" height="7.7"/>
<linearGradient id="SVGID_00000031902867449751557130000008091722012921368969_" gradientUnits="userSpaceOnUse" x1="342.1152" y1="244.5304" x2="352.1471" y2="244.5304">
	<stop  offset="0" style="stop-color:#FF88DC"/>
	<stop  offset="1" style="stop-color:#00AEEF"/>
</linearGradient>
<circle style="fill:url(#SVGID_00000031902867449751557130000008091722012921368969_);" cx="347.1" cy="244.5" r="5"/>
<rect x="360.3" y="153.5" class="st0" width="217.7" height="7.7"/>
<rect x="360.3" y="173.4" class="st0" width="217.7" height="7.7"/>
<rect x="360.3" y="193.4" class="st0" width="217.7" height="7.7"/>
<circle class="st0" cx="347.1" cy="157.6" r="5"/>
<rect x="360.3" y="326.5" class="st0" width="217.7" height="7.7"/>
<rect x="360.3" y="346.5" class="st0" width="217.7" height="7.7"/>
<rect x="360.3" y="366.5" class="st0" width="217.7" height="7.7"/>
<circle class="st8" cx="347.1" cy="330.6" r="5"/>
<path id="a663a212-5a7a-4ecb-8a2f-6fa6ae0edb66-359" class="st1" d="M812.1,299H614.5c-3,0-5.4-4.9-5.4-11v-147c0-6.1,2.4-11,5.4-11
	h197.5c3,0,5.4,4.9,5.4,11v147C817.4,294.1,815,299,812.1,299z"/>
<path id="a98f1666-d830-4ea5-aaaf-8bede3f0142e-360" class="st9" d="M812.1,299H614.5c-3,0-5.4-4.9-5.4-11v-147c0-6.1,2.4-11,5.4-11
	h197.5c3,0,5.4,4.9,5.4,11v147C817.4,294.1,815,299,812.1,299z M614.5,134.5c-1.8,0-3.2,2.9-3.2,6.6v147c0,3.6,1.4,6.6,3.2,6.6
	h197.5c1.8,0,3.2-2.9,3.2-6.6v-147c0-3.6-1.4-6.6-3.2-6.6L614.5,134.5z"/>
<linearGradient id="SVGID_00000124856156516087998150000000446566986638232766_" gradientUnits="userSpaceOnUse" x1="686.8845" y1="251.9262" x2="740.0557" y2="251.9262">
	<stop  offset="0" style="stop-color:#FF88DC"/>
	<stop  offset="1" style="stop-color:#00AEEF"/>
</linearGradient>
<rect x="686.9" y="249.9" style="fill:url(#SVGID_00000124856156516087998150000000446566986638232766_);" width="53.2" height="4"/>
<linearGradient id="SVGID_00000055690257950866488420000003984214297448812937_" gradientUnits="userSpaceOnUse" x1="679.7702" y1="262.3108" x2="746.6863" y2="262.3108">
	<stop  offset="0" style="stop-color:#FF88DC"/>
	<stop  offset="1" style="stop-color:#00AEEF"/>
</linearGradient>
<rect x="679.8" y="260.3" style="fill:url(#SVGID_00000055690257950866488420000003984214297448812937_);" width="66.9" height="4"/>
<path class="st12" d="M748,199.5c0,19.2-15.6,34.7-34.7,34.7c-5.7,0-11.4-1.4-16.4-4.1l0,0c-16.9-9.1-23.2-30.2-14.1-47
	s30.2-23.2,47-14.1C741,175,748,186.7,748,199.5z"/>
<circle class="st1" cx="713.5" cy="188.4" r="9.4"/>
<path class="st1" d="M729.6,217.3c-10.6,3.7-22.1,3.7-32.6-0.1l0,0l7-13.9h18.9L729.6,217.3z"/>
<polygon class="st13" points="574.1,351.5 722.4,351.5 722.4,286.6 720.1,286.6 720.1,349.3 574.1,349.3 "/>
<circle class="st13" cx="721.2" cy="297.1" r="12.5"/>
<path id="afd00def-263c-4571-9f5d-7c41b30310dc-361" class="st1" d="M300.1,209H102.5c-3,0-5.4-4.9-5.4-11v-147c0-6.1,2.4-11,5.4-11
	h197.5c3,0,5.4,4.9,5.4,11v147C305.4,204.1,303,209,300.1,209z"/>
<path id="e92130d0-80d8-429c-a3ca-73c1ffe05a6e-362" class="st9" d="M300.1,209H102.5c-3,0-5.4-4.9-5.4-11v-147c0-6.1,2.4-11,5.4-11
	h197.5c3,0,5.4,4.9,5.4,11v147C305.4,204.1,303,209,300.1,209z M102.5,44.5c-1.8,0-3.2,2.9-3.2,6.6v147c0,3.6,1.4,6.6,3.2,6.6h197.5
	c1.8,0,3.2-2.9,3.2-6.6v-147c0-3.6-1.4-6.6-3.2-6.6L102.5,44.5z"/>
<path class="st14" d="M245.2,86c-8.8-9.3-20.9-14.8-33.7-15.3v49.1L245.2,86z"/>
<path class="st15" d="M245.2,92.1l-33.7,33.7h47.1C258.6,113.3,253.8,101.2,245.2,92.1z"/>
<path class="st0" d="M258.6,129.3c0,3.1-0.3,6.1-0.8,9.1c0,0.2-0.1,0.5-0.1,0.7c-1.1,5.2-3,10.3-5.7,14.9c-0.1,0.2-0.3,0.5-0.4,0.7
	v0c-2.7,4.4-6,8.3-9.9,11.7c-0.2,0.2-0.4,0.3-0.6,0.5c-8.3,7-18.7,11-29.6,11.4v-49.1H258.6z"/>
<path class="st16" d="M206.7,178.4c0.7,0,1.3,0,1.9,0v-49.1L173,165C182.1,173.7,194.2,178.5,206.7,178.4z"/>
<linearGradient id="SVGID_00000155861391975649832880000016123424076788654746_" gradientUnits="userSpaceOnUse" x1="157.6705" y1="101.2757" x2="208.7615" y2="101.2757">
	<stop  offset="0" style="stop-color:#FF88DC"/>
	<stop  offset="1" style="stop-color:#00AEEF"/>
</linearGradient>
<path style="fill:url(#SVGID_00000155861391975649832880000016123424076788654746_);" d="M206.8,76.7c-27.1,0-49.1,22-49.1,49.1
	c0,0,0,0,0,0h51.1V76.8C208.1,76.7,207.4,76.7,206.8,76.7z"/>
<linearGradient id="SVGID_00000015325070621947949550000002859974679157175681_" gradientUnits="userSpaceOnUse" x1="144.011" y1="147.1833" x2="195.0525" y2="147.1833">
	<stop  offset="0" style="stop-color:#FF88DC"/>
	<stop  offset="1" style="stop-color:#00AEEF"/>
</linearGradient>
<path style="fill:url(#SVGID_00000015325070621947949550000002859974679157175681_);" d="M195.1,129.3l-10.3,10.3l-0.3,0.3l0,0l-9,9
	l-0.3,0.3l-9.7,9.7l-0.3,0.3v0l-5.6,5.6c-9.8-9.3-15.4-22.2-15.4-35.7L195.1,129.3z"/>
<polygon class="st13" points="360.9,263.5 212.7,263.5 212.7,198.6 215,198.6 215,261.3 360.9,261.3 "/>
<circle class="st13" cx="213.8" cy="209.1" r="12.5"/>
<path class="st2" d="M918.9,204.9l-12.6,3.3l0.8,20.5l0.1,37.2c-3.4,2.3-4.2,7-1.9,10.4c2.3,3.4,7,4.2,10.4,1.9
	c3.4-2.3,4.2-7,1.9-10.4c-0.2-0.2-0.3-0.4-0.5-0.7l3.9-37.4L918.9,204.9z"/>
<path class="st15" d="M922.4,217.2L904,211l0-0.3c0-0.2-2.7-17.6-2.7-29.6c-0.1-2.7,1-5.3,3.1-7.1c2.8-2.6,6.9-3.2,10.4-1.7
	c3.7,1.5,6.2,5.1,6.4,9.2L922.4,217.2z"/>
<path class="st3" d="M888.1,215.5l-28.2-7.3l-13,43.9l-0.5,163.6l21.6-0.1l9-132.4l57.5,122.3l23.2-2.8l-50.5-131.1
	c0,0,2.8-23.2-6-34.8l1.9-12L888.1,215.5z"/>
<path class="st15" d="M903.8,228l-2.1,0l-43.3-17.3l20.7-46.2l9.8,1.8l-1.8-7.2l21.8-5.3l3.8,15.1l5.6,5.1c2.9,2.6,3.9,6.7,2.7,10.4
	L908,222.9c0.4,2.4-1.2,4.6-3.5,5C904.3,228,904,228,903.8,228z"/>
<path class="st2" d="M871.2,193.4l-11.4-6.3l-13.5,15.4l-25.7,27c-4.1-0.6-7.9,2.1-8.5,6.2s2.1,7.9,6.2,8.5c4.1,0.6,7.9-2.1,8.5-6.2
	c0-0.3,0.1-0.5,0.1-0.8l28.6-24.3L871.2,193.4z"/>
<path class="st15" d="M865.2,204.8l-9-17.2l0.2-0.2c0.1-0.1,10.2-14.6,18.5-23.3c1.8-2,4.4-3.1,7.1-3c3.8,0.1,7.2,2.4,8.7,6
	c1.6,3.7,1,8-1.7,11L865.2,204.8z"/>
<circle class="st2" cx="892.7" cy="133.7" r="17.3"/>
<path class="st3" d="M871.9,123.5c2.9-5.2,4-7.4,7.8-10.5c3.3-2.8,7.4-3.6,10.7-1c10-4.3,21.6,0.3,25.9,10.3
	c4.3,10-0.3,21.6-10.3,25.9c-10,4.3-21.6-0.3-25.9-10.3c-1.1-2.5-1.6-5.1-1.6-7.8c0-0.7,0-1.5,0.1-2.2
	C875.8,127.5,874.8,123.9,871.9,123.5z"/>
<path class="st19" d="M107.6,274.6c3.1-1.8,4.1-5.8,2.2-8.9c-0.2-0.3-0.4-0.6-0.7-0.9l8.4-84.7l-14.1,0.9l-3.9,83.4
	c-2.6,2.5-2.6,6.7,0,9.2C101.7,275.8,105,276.2,107.6,274.6L107.6,274.6z"/>
<path class="st3" d="M97.8,177l3.7,28.1l-0.5,17.2l15.5,1.4l3.1-14.3l1.7-37.9c0.3-5.9-4.1-11.1-10-11.7l0,0
	c-6.1-0.7-11.7,3.6-12.5,9.7L97.8,177z"/>
<polygon class="st20" points="157.1,424 166.5,424 171,387.7 157.1,387.7 "/>
<path class="st3" d="M154.7,420.9l18.5,0h0c6.5,0,11.8,5.3,11.8,11.8v0.4l-30.3,0L154.7,420.9z"/>
<polygon class="st20" points="79.5,424 88.9,424 93.4,387.7 79.5,387.7 "/>
<path class="st3" d="M77.1,420.9l18.5,0h0c6.5,0,11.8,5.3,11.8,11.8v0.4l-30.3,0L77.1,420.9z"/>
<circle class="st19" cx="116.1" cy="126" r="20.4"/>
<path class="st3" d="M118.7,154.7l-14.1,1.6l0,0c-7,9.9-8.8,22.5-4.8,34l10.7,30.9c0,0-14.8,29.7-14.8,57.3
	c0,27.6-28.2,126-28.2,126l39.7,4.1l17.3-104.8l23.9,104.4l27.3-4.4l-15-136.9l-9.9-45.1l-0.4-22c0,0,4.2-16.5-6.3-27l-12.9-18
	L118.7,154.7z"/>
<path class="st19" d="M218.4,227.3c-0.2-3.9-3.5-7-7.4-6.8c-0.4,0-0.8,0.1-1.2,0.2l-76.9-52.7l-6.5,14l78,47.7
	c1.1,3.8,5.1,6,8.9,4.9C216.4,233.6,218.5,230.6,218.4,227.3L218.4,227.3z"/>
<path class="st3" d="M119.4,185.3l28.9,11.2l16.3,9.6l9.5-14.1L162,181.4l-35.5-21.6c-5.6-3.4-12.8-1.9-16.5,3.4l0,0
	c-3.9,5.5-2.7,13.2,2.8,17.2L119.4,185.3z"/>
<path class="st3" d="M139.8,118.8h-29.9v-13.1c6.6-2.6,13-4.8,16.9,0C134,105.7,139.8,111.5,139.8,118.8z"/>
<path class="st3" d="M115.2,104.4c-17.9,0.1-22.9,22.4-22.9,35.1c0,7.1,3.2,9.6,8.2,10.4l1.8-9.4l4.1,9.9c1.4,0,2.9,0,4.4,0l1.4-2.9
	l3.1,2.8c12.6,0,30.8-1.1,22.7-10.7C127.3,126.6,130.8,104.3,115.2,104.4z"/>
<path class="st3" d="M935.8,174.7c-0.8-3-0.9-6.1-0.3-9.2c0.8-5.9,2.7-11.6,4.4-17.3c1.7-5.7,3.3-11.5,3.5-17.4
	c0.2-5.9-1.1-12.1-4.6-16.9c-3.5-4.8-9.6-7.9-15.5-7c-5.6,0.9-10.5,5.9-10.5,11.5c-1,1.8,0.3,4.3,2.1,5.4c1.9,1.1,4.3,1.3,6.4,1.9
	c4.3,1.4,7.8,4.5,9.7,8.5c1.8,4.1,2.3,8.6,1.4,13c-0.8,4.2-2.8,8.1-4.3,12.2c-1.5,4.1-2.4,8.5-1.3,12.7c2,6.3,8.4,10.2,14.9,9.1
	C938.8,180.1,936.6,177.7,935.8,174.7z"/>
<path class="st12" d="M1010,433.6H15c-0.6,0-1-0.4-1-1s0.4-1,1-1h995c0.6,0,1,0.4,1,1S1010.6,433.6,1010,433.6z"/>
<path class="st0" d="M783,385c-1.9-15.6-11.6-31-26.5-36.1c5.9,16.1,5.9,33.7,0,49.7c-2.3,6.2-5.5,12.8-3.3,19.1
	c1.3,3.9,4.6,6.8,8.3,8.7c3.7,1.9,7.7,2.7,11.7,3.6l0.8,0.7C780.3,416.3,784.9,400.6,783,385z"/>
<path class="st1" d="M756.3,349.2c8.7,9.7,14.1,21.9,15.4,34.8c0.3,2.8,0.2,5.6-0.3,8.3c-0.6,2.7-1.9,5.1-3.8,7.1
	c-1.7,1.9-3.7,3.6-4.9,5.9c-1.2,2.4-1.4,5.1-0.5,7.6c1.1,3.1,3.2,5.6,5.4,8c2.4,2.7,5,5.4,6,8.9c0.1,0.4,0.8,0.2,0.7-0.2
	c-1.8-6.2-7.8-9.7-10.6-15.2c-1.3-2.6-1.9-5.6-0.6-8.3c1.1-2.4,3.1-4.2,4.9-6.1c1.9-1.9,3.2-4.2,4-6.8c0.7-2.7,0.9-5.5,0.6-8.3
	c-0.5-6.3-2-12.4-4.4-18.3c-2.7-6.7-6.5-12.8-11.3-18.2C756.5,348.4,756,348.9,756.3,349.2L756.3,349.2z"/>
<path class="st1" d="M771.5,379.9c4.4-1.1,7.4-5.2,7.1-9.7c0-0.4-0.7-0.4-0.7,0c0.3,4.2-2.5,8.1-6.6,9
	C770.9,379.3,771.1,380,771.5,379.9L771.5,379.9z"/>
<path class="st1" d="M768.6,398.7c-3.9-2.3-6.7-6-8-10.3c-0.1-0.4-0.8-0.2-0.7,0.2c1.3,4.5,4.3,8.3,8.3,10.7
	C768.7,399.5,769,398.9,768.6,398.7L768.6,398.7z"/>
<path class="st1" d="M764.8,360.9c-1.6,0.8-3.5,0.7-5-0.3c-0.4-0.2-0.7,0.4-0.3,0.6c1.7,1,3.7,1.1,5.5,0.3c0.2-0.1,0.3-0.3,0.2-0.4
	C765.1,360.9,764.9,360.8,764.8,360.9L764.8,360.9z"/>
<path class="st0" d="M711.1,376.8c0.2,0.2,0.5,0.3,0.7,0.5c3.1,2.1,6.1,4.4,8.9,6.9c0.2,0.2,0.4,0.4,0.6,0.6
	c6.6,6.2,12,13.6,15.9,21.7c1.5,3.2,2.8,6.6,3.9,10c1.4,4.8,2.6,10,5.4,13.9c0.3,0.4,0.6,0.8,0.9,1.2h25.6c0.1,0,0.1-0.1,0.2-0.1
	l1,0c0-0.2-0.1-0.4-0.1-0.5c0-0.1-0.1-0.2-0.1-0.3c0-0.1,0-0.1,0-0.2c0,0,0,0,0-0.1c0-0.1,0-0.1,0-0.2c-0.3-1-0.5-2.1-0.8-3.1
	c0,0,0,0,0,0c-2-8-4.9-15.7-8.8-23c-0.1-0.2-0.2-0.4-0.4-0.7c-1.8-3.2-3.8-6.3-6.1-9.2c-1.2-1.6-2.6-3.1-4-4.6
	c-3.6-3.7-7.8-6.9-12.4-9.3c-9.2-4.9-19.8-6.7-29.7-3.7C711.6,376.7,711.4,376.7,711.1,376.8z"/>
<path class="st1" d="M711.2,377.1c12.8,2.5,24.4,9,33.3,18.6c1.9,2,3.6,4.3,4.8,6.8c1.1,2.5,1.5,5.2,1.2,8c-0.2,2.5-0.8,5.1-0.4,7.7
	c0.4,2.6,2,5,4.2,6.4c2.7,1.8,6,2.6,9.1,3.2c3.5,0.7,7.2,1.3,10.2,3.5c0.4,0.3,0.8-0.3,0.4-0.6c-5.1-3.8-12-3-17.6-5.7
	c-2.6-1.3-4.9-3.3-5.5-6.3c-0.6-2.6,0-5.2,0.2-7.8c0.3-2.6,0-5.3-0.9-7.8c-1.1-2.6-2.6-4.9-4.5-7c-4.2-4.7-9.1-8.7-14.5-11.9
	c-6.2-3.7-12.9-6.3-20-7.7C710.8,376.4,710.7,377.1,711.2,377.1L711.2,377.1z"/>
<path class="st1" d="M741.8,392.5c2.9-3.5,2.8-8.6-0.2-12c-0.3-0.3-0.8,0.1-0.5,0.4c2.8,3.2,2.9,7.9,0.2,11.2
	C740.9,392.4,741.5,392.8,741.8,392.5z"/>
<path class="st1" d="M750.8,409.2c-4.5,0.5-9-0.7-12.6-3.4c-0.4-0.3-0.8,0.3-0.4,0.6c3.8,2.8,8.5,4,13.1,3.5
	C751.3,409.9,751.2,409.2,750.8,409.2z"/>
<path class="st1" d="M724.9,381.4c-0.8,1.6-2.4,2.6-4.1,2.8c-0.4,0-0.3,0.7,0.1,0.7c1.9-0.2,3.7-1.4,4.6-3.1
	c0.1-0.2,0.1-0.4-0.1-0.5C725.2,381.2,725,381.2,724.9,381.4L724.9,381.4z"/>
<path class="st0" d="M206.1,385c1.9-15.6,11.6-31,26.5-36.1c-5.9,16.1-5.9,33.7,0,49.7c2.3,6.2,5.5,12.8,3.3,19.1
	c-1.3,3.9-4.6,6.8-8.3,8.7c-3.7,1.9-7.7,2.7-11.7,3.6l-0.8,0.7C208.8,416.3,204.2,400.6,206.1,385z"/>
<path class="st1" d="M232.7,349.2c-8.7,9.7-14.1,21.9-15.4,34.8c-0.3,2.8-0.2,5.6,0.3,8.3c0.6,2.7,1.9,5.1,3.8,7.1
	c1.7,1.9,3.7,3.6,4.9,5.9c1.2,2.4,1.4,5.1,0.5,7.6c-1.1,3.1-3.2,5.6-5.4,8c-2.4,2.7-5,5.4-6,8.9c-0.1,0.4-0.8,0.2-0.7-0.2
	c1.8-6.2,7.8-9.7,10.6-15.2c1.3-2.6,1.9-5.6,0.6-8.3c-1.1-2.4-3.1-4.2-4.9-6.1c-1.9-1.9-3.2-4.2-4-6.8c-0.7-2.7-0.9-5.5-0.6-8.3
	c0.5-6.3,2-12.4,4.4-18.3c2.7-6.7,6.5-12.8,11.3-18.2C232.6,348.4,233,348.9,232.7,349.2L232.7,349.2z"/>
<path class="st1" d="M217.5,379.9c-4.4-1.1-7.4-5.2-7.1-9.7c0-0.4,0.7-0.4,0.7,0c-0.3,4.2,2.5,8.1,6.6,9
	C218.2,379.3,218,380,217.5,379.9z"/>
<path class="st1" d="M220.5,398.7c3.9-2.3,6.7-6,8-10.3c0.1-0.4,0.8-0.2,0.7,0.2c-1.3,4.5-4.3,8.3-8.3,10.7
	C220.4,399.5,220.1,398.9,220.5,398.7L220.5,398.7z"/>
<path class="st1" d="M224.3,360.9c1.6,0.8,3.5,0.7,5-0.3c0.4-0.2,0.7,0.4,0.3,0.6c-1.7,1-3.7,1.1-5.5,0.3c-0.2-0.1-0.3-0.3-0.2-0.4
	C223.9,360.9,224.1,360.8,224.3,360.9L224.3,360.9z"/>
<path class="st0" d="M277.9,376.8c-0.2,0.2-0.5,0.3-0.7,0.5c-3.1,2.1-6.1,4.4-8.9,6.9c-0.2,0.2-0.4,0.4-0.6,0.6
	c-6.6,6.2-12,13.6-15.9,21.7c-1.5,3.2-2.8,6.6-3.9,10c-1.4,4.8-2.6,10-5.4,13.9c-0.3,0.4-0.6,0.8-0.9,1.2H216
	c-0.1,0-0.1-0.1-0.2-0.1l-1,0c0-0.2,0.1-0.4,0.1-0.5c0-0.1,0.1-0.2,0.1-0.3c0-0.1,0-0.1,0-0.2c0,0,0,0,0-0.1c0-0.1,0-0.1,0-0.2
	c0.3-1,0.5-2.1,0.8-3.1c0,0,0,0,0,0c2-8,4.9-15.7,8.8-23c0.1-0.2,0.2-0.4,0.4-0.7c1.8-3.2,3.8-6.3,6.1-9.2c1.2-1.6,2.6-3.1,4-4.6
	c3.6-3.7,7.8-6.9,12.4-9.3c9.2-4.9,19.8-6.7,29.7-3.7C277.4,376.7,277.7,376.7,277.9,376.8z"/>
<path class="st1" d="M277.9,377.1c-12.8,2.5-24.4,9-33.3,18.6c-1.9,2-3.6,4.3-4.8,6.8c-1.1,2.5-1.5,5.2-1.2,8
	c0.2,2.5,0.8,5.1,0.4,7.7c-0.4,2.6-2,5-4.2,6.4c-2.7,1.8-6,2.6-9.1,3.2c-3.5,0.7-7.2,1.3-10.2,3.5c-0.4,0.3-0.8-0.3-0.4-0.6
	c5.1-3.8,12-3,17.6-5.7c2.6-1.3,4.9-3.3,5.5-6.3c0.6-2.6,0-5.2-0.2-7.8c-0.3-2.6,0-5.3,0.9-7.8c1.1-2.6,2.6-4.9,4.5-7
	c4.2-4.7,9.1-8.7,14.5-11.9c6.2-3.7,12.9-6.3,20-7.7C278.3,376.4,278.3,377.1,277.9,377.1L277.9,377.1z"/>
<path class="st1" d="M247.3,392.5c-2.9-3.5-2.8-8.6,0.2-12c0.3-0.3,0.8,0.1,0.5,0.4c-2.8,3.2-2.9,7.9-0.2,11.2
	C248.1,392.4,247.6,392.8,247.3,392.5z"/>
<path class="st1" d="M238.3,409.2c4.5,0.5,9-0.7,12.6-3.4c0.4-0.3,0.8,0.3,0.4,0.6c-3.8,2.8-8.5,4-13.1,3.5
	C237.7,409.9,237.9,409.2,238.3,409.2L238.3,409.2z"/>
<path class="st1" d="M264.1,381.4c0.8,1.6,2.4,2.6,4.1,2.8c0.4,0,0.3,0.7-0.1,0.7c-1.9-0.2-3.7-1.4-4.6-3.1
	c-0.1-0.2-0.1-0.4,0.1-0.5C263.8,381.2,264,381.2,264.1,381.4L264.1,381.4z"/>
</svg>
